<svg xmlns="http://www.w3.org/2000/svg" viewBox="0 0 126 38"><g fill="none" fill-rule="evenodd"><rect width="125.244" height="37.632" fill="#1A2238" rx="5.88"/><path fill="#FFF" fill-rule="nonzero" d="M40.587 6.49h2.132c1.843 0 2.933 1.15 2.933 3.105 0 1.96-1.086 3.109-2.933 3.109h-2.132V6.49zm.775.697v4.82h1.305c1.408 0 2.192-.862 2.192-2.404 0-1.554-.78-2.416-2.192-2.416h-1.305zm7.773 5.56c-1.305 0-2.14-.926-2.14-2.364 0-1.443.835-2.365 2.14-2.365 1.305 0 2.14.922 2.14 2.365 0 1.438-.835 2.364-2.14 2.364zm0-.667c.866 0 1.378-.634 1.378-1.697 0-1.068-.512-1.697-1.378-1.697-.866 0-1.378.633-1.378 1.697 0 1.063.517 1.697 1.378 1.697zm9.508-4.019l-1.3 4.643h-.758l-1.06-3.609h-.017l-1.06 3.609h-.757l-1.3-4.643h.74l.943 3.795h.017l1.064-3.795h.723l1.064 3.795h.017l.944-3.795h.74zm1.343 4.643V8.061h.707v.754h.017c.293-.525.753-.797 1.473-.797 1.02 0 1.61.655 1.61 1.71v2.976h-.749V9.857c0-.758-.353-1.171-1.085-1.171-.763 0-1.223.525-1.223 1.322v2.696h-.75zm5.55 0V6.218h.75v6.486h-.75zm4.427.043c-1.305 0-2.14-.926-2.14-2.364 0-1.443.835-2.365 2.14-2.365 1.305 0 2.14.922 2.14 2.365 0 1.438-.835 2.364-2.14 2.364zm0-.667c.866 0 1.379-.634 1.379-1.697 0-1.068-.513-1.697-1.379-1.697-.865 0-1.378.633-1.378 1.697 0 1.063.517 1.697 1.378 1.697zm5.15.017c.758 0 1.314-.491 1.314-1.159v-.374l-1.215.077c-.697.043-1.059.297-1.059.745 0 .43.375.71.96.71zm-.159.65c-.943 0-1.568-.543-1.568-1.365 0-.797.612-1.266 1.74-1.335l1.301-.078v-.387c0-.577-.379-.896-1.064-.896-.538 0-.939.276-1.03.715h-.718c.021-.784.784-1.383 1.757-1.383 1.098 0 1.804.586 1.804 1.5v3.186h-.71v-.805h-.018c-.262.516-.844.848-1.494.848zm5.684 0c-1.167 0-1.99-.947-1.99-2.364 0-1.417.819-2.365 1.973-2.365.663 0 1.197.289 1.481.797h.018V6.218h.749v6.486h-.715v-.784h-.013c-.301.534-.831.827-1.503.827zm.134-4.061c-.814 0-1.357.672-1.357 1.697 0 1.029.543 1.697 1.357 1.697.805 0 1.352-.685 1.352-1.697 0-1.008-.547-1.697-1.352-1.697zm8.59 4.061c-1.305 0-2.14-.926-2.14-2.364 0-1.443.835-2.365 2.14-2.365 1.305 0 2.14.922 2.14 2.365 0 1.438-.835 2.364-2.14 2.364zm0-.667c.866 0 1.378-.634 1.378-1.697 0-1.068-.512-1.697-1.378-1.697-.866 0-1.378.633-1.378 1.697 0 1.063.517 1.697 1.378 1.697zm3.634.624V8.061h.706v.754h.018c.293-.525.753-.797 1.473-.797 1.02 0 1.61.655 1.61 1.71v2.976h-.75V9.857c0-.758-.352-1.171-1.084-1.171-.763 0-1.223.525-1.223 1.322v2.696h-.75zm8.569-5.69h.75v1.047h.904v.62h-.905v2.787c0 .426.181.62.577.62.09 0 .272-.013.323-.021v.633a2.71 2.71 0 01-.482.038c-.84 0-1.167-.348-1.167-1.24V8.682h-.646v-.62h.646V7.014zm3.234 5.69V6.218h.749v2.597h.017c.289-.525.762-.797 1.473-.797 1.016 0 1.637.69 1.637 1.723v2.963h-.75v-2.83c0-.74-.374-1.188-1.11-1.188-.785 0-1.267.534-1.267 1.348v2.67h-.75zm7.428-4.027c-.728 0-1.253.53-1.305 1.314h2.554c-.017-.788-.517-1.314-1.25-1.314zm1.232 2.7h.74c-.129.797-.934 1.37-1.925 1.37-1.305 0-2.127-.909-2.127-2.347s.827-2.382 2.093-2.382c1.24 0 2.015.875 2.015 2.279v.292h-3.333v.044c0 .882.543 1.455 1.37 1.455.58 0 1.033-.275 1.167-.71z"/><text fill="#FFF" font-family="SFUIDisplay-Medium, SF UI Display" font-size="17.052" font-weight="400"><tspan x="39.984" y="29.524">App Store</tspan></text><path fill="#FFF" fill-rule="nonzero" d="M28.318 28.05c-1.032 1.502-2.1 2.995-3.785 3.027-1.658.031-2.19-.978-4.082-.978-1.894 0-2.487.946-4.053 1.009-1.627.06-2.864-1.622-3.904-3.118-2.125-3.057-3.747-8.645-1.566-12.416 1.08-1.873 3.016-3.058 5.114-3.089 1.598-.03 3.107 1.072 4.083 1.072.977 0 2.809-1.322 4.735-1.128.806.033 3.068.323 4.521 2.44-.115.075-2.7 1.573-2.669 4.693.032 3.727 3.28 4.966 3.318 4.983-.029.087-.519 1.768-1.712 3.505zM21.242 8.334c.892-1.04 2.4-1.814 3.643-1.866.159 1.445-.425 2.893-1.288 3.936-.864 1.04-2.279 1.851-3.668 1.743-.188-1.414.512-2.889 1.313-3.813z"/></g></svg>