<?xml version="1.0" encoding="UTF-8"?>
<svg width="126px" height="38px" viewBox="0 0 126 38" version="1.1" xmlns="http://www.w3.org/2000/svg" xmlns:xlink="http://www.w3.org/1999/xlink">
    <!-- Generator: Sketch 54.1 (76490) - https://sketchapp.com -->
    <title>Apple Store</title>
    <desc>Created with Sketch.</desc>
    <g id="WebDesign" stroke="none" stroke-width="1" fill="none" fill-rule="evenodd">
        <g id="1a4-Home" transform="translate(-128.000000, -6618.000000)">
            <g id="Footer" transform="translate(104.000000, 6494.000000)">
                <g id="Apple-Store" transform="translate(24.000000, 124.000000)">
                    <rect id="button" fill="#1A2238" x="0" y="0" width="125.244001" height="37.6320002" rx="5.88000003"></rect>
                    <text id="Download-on-the" font-family="Helvetica" font-size="8.82000005" font-weight="normal" letter-spacing="0.705600027" fill="#FFFFFF">
                        <tspan x="39.9840002" y="13.704">Download on th</tspan>
                        <tspan x="111.15451" y="13.704">e</tspan>
                    </text>
                    <text id="App-Store" font-family="Helvetica" font-size="17.0520001" font-weight="normal" fill="#FFFFFF">
                        <tspan x="39.9840002" y="29.5240001">App Store</tspan>
                    </text>
                    <path d="M28.3176228,28.0502994 C27.2858266,29.552477 26.2185281,31.0454146 24.5334181,31.0767074 C22.8749968,31.1080002 22.3433337,30.0987458 20.450921,30.0987458 C18.5565222,30.0987458 17.9639097,31.0454146 16.3980794,31.1080002 C14.7712748,31.1686146 13.5342737,29.4855794 12.4939743,27.9901778 C10.3686751,24.9326001 8.74656277,19.3448641 10.9281316,15.5739338 C12.0084392,13.7012076 13.9442241,12.5163193 16.0419409,12.4850388 C17.6395493,12.4557665 19.1487624,13.5573593 20.1245745,13.5573593 C21.1018763,13.5573593 22.9337119,12.2347703 24.8595164,12.428761 C25.6656383,12.4619142 27.9280924,12.7521487 29.3810731,14.8688479 C29.2662498,14.9439876 26.6805524,16.4416561 26.7120823,19.5618193 C26.7437363,23.2889889 29.992678,24.5278881 30.0304146,24.5447665 C30.000995,24.6323617 29.5110407,26.3134257 28.3176228,28.0502994 Z M21.2423952,8.33439381 C22.1342932,7.29388356 23.6412719,6.51995348 24.8849637,6.46795076 C25.0438544,7.91327156 24.4598071,9.36058821 23.5972045,10.4035009 C22.7328641,11.4445409 21.3179924,12.2554925 19.9294369,12.1472121 C19.7407542,10.7331717 20.440618,9.25844309 21.2423952,8.33439381 Z" id="logo" fill="#FFFFFF" fill-rule="nonzero"></path>
                </g>
            </g>
        </g>
    </g>
</svg>