<?xml version="1.0" encoding="UTF-8"?>
<svg width="24px" height="24px" viewBox="0 0 24 24" version="1.1" xmlns="http://www.w3.org/2000/svg" xmlns:xlink="http://www.w3.org/1999/xlink">
    <!-- Generator: Sketch 54.1 (76490) - https://sketchapp.com -->
    <title>Icons / Facebook</title>
    <desc>Created with Sketch.</desc>
    <g id="WebDesign" stroke="none" stroke-width="1" fill="none" fill-rule="evenodd">
        <g id="1a4-Home" transform="translate(-1029.000000, -6665.000000)" fill="#4460A0">
            <g id="Footer" transform="translate(104.000000, 6494.000000)">
                <g id="Icons-/-Facebook" transform="translate(925.000000, 171.000000)">
                    <path d="M12.3064091,23.0399973 L1.27163098,23.0399973 C0.569122807,23.0399973 0,22.4705213 0,21.7682867 L0,1.27162111 C0,0.56920779 0.569212208,0 1.27163098,0 L21.7684557,0 C22.4706956,0 23.0399973,0.56920779 23.0399973,1.27162111 L23.0399973,21.7682867 C23.0399973,22.4706107 22.4706062,23.0399973 21.7684557,23.0399973 L15.8972646,23.0399973 L15.8972646,14.1176406 L18.8920879,14.1176406 L19.3405202,10.6404398 L15.8972646,10.6404398 L15.8972646,8.42046687 C15.8972646,7.41373702 16.1768196,6.72768385 17.6204569,6.72768385 L19.4617471,6.72687925 L19.4617471,3.61684303 C19.143303,3.57446758 18.0502939,3.47979331 16.778663,3.47979331 C14.1239187,3.47979331 12.3064091,5.10025199 12.3064091,8.07609929 L12.3064091,10.6404398 L9.30389735,10.6404398 L9.30389735,14.1176406 L12.3064091,14.1176406 L12.3064091,23.0399973 L12.3064091,23.0399973 Z"></path>
                </g>
            </g>
        </g>
    </g>
</svg>