<?xml version="1.0" encoding="UTF-8"?>
<svg width="126px" height="38px" viewBox="0 0 126 38" version="1.1" xmlns="http://www.w3.org/2000/svg" xmlns:xlink="http://www.w3.org/1999/xlink">
    <!-- Generator: Sketch 55.2 (78181) - https://sketchapp.com -->
    <title>Google Play</title>
    <desc>Created with Sketch.</desc>
    <defs>
        <polygon id="path-1" points="6.40625e-05 0.118743902 9.80595078 0.118743902 9.80595078 10.0799939 6.40625e-05 10.0799939"></polygon>
        <polygon id="path-3" points="0 12.8813354 40.8672305 12.8813354 40.8672305 0.158615854 0 0.158615854"></polygon>
    </defs>
    <g id="WebDesign" stroke="none" stroke-width="1" fill="none" fill-rule="evenodd">
        <g id="1a4-Home" transform="translate(-264.000000, -6666.000000)">
            <g id="Footer" transform="translate(104.000000, 6542.000000)">
                <g id="Google-Play" transform="translate(160.000000, 124.000000)">
                    <rect id="button" fill="#1A2238" x="0" y="0" width="125.244001" height="37.6320002" rx="5.88000003"></rect>
                    <text id="Download-on" font-family="Roboto-Regular, Roboto" font-size="8.82000005" font-weight="normal" letter-spacing="0.705600027" fill="#FFFFFF">
                        <tspan x="40.5295858" y="12.704">Download on</tspan>
                    </text>
                    <text id="play" font-family="Roboto-Light, Roboto" font-size="14.1120001" font-weight="300" fill="#FFFFFF">
                        <tspan x="85.8480005" y="29.4640001">play</tspan>
                    </text>
                    <g id="Group-13" transform="translate(41.000000, 19.000000)">
                        <g id="Group-3" transform="translate(0.000000, 0.039872)">
                            <mask id="mask-2" fill="white">
                                <use xlink:href="#path-1"></use>
                            </mask>
                            <g id="Clip-2"></g>
                            <path d="M5.10424375,4.65106707 L5.10424375,6.01242073 L8.39145078,6.01242073 C8.29087266,6.77609146 8.03366172,7.33509146 7.6424,7.72794512 C7.16161094,8.20387195 6.4124,8.72403049 5.10424375,8.72403049 C3.08034922,8.72403049 1.49832578,7.10822561 1.49832578,5.10479878 C1.49832578,3.10153049 3.08034922,1.48556707 5.10424375,1.48556707 C6.19442734,1.48556707 6.99376719,1.91171341 7.5809,2.45961585 L8.54792344,1.50221341 C7.73176719,0.716347561 6.63597812,0.118664634 5.10424375,0.118664634 C2.33129844,0.118664634 6.40625e-05,2.3545061 6.40625e-05,5.09940854 C6.40625e-05,7.84431098 2.33129844,10.0799939 5.10424375,10.0799939 C6.60250547,10.0799939 7.73176719,9.59296951 8.61502891,8.68534756 C9.52087266,7.78882317 9.80595078,6.52164024 9.80595078,5.50320122 C9.80595078,5.18787195 9.78352891,4.89457927 9.73323984,4.65106707 L5.10424375,4.65106707 Z" id="Fill-1" fill="#FFFFFF" mask="url(#mask-2)"></path>
                        </g>
                        <path d="M13.9150156,8.74739878 C12.9310156,8.74739878 12.0812266,7.94488659 12.0812266,6.79945976 C12.0812266,5.64277683 12.9310156,4.8513622 13.9150156,4.8513622 C14.8990156,4.8513622 15.7486445,5.64277683 15.7486445,6.79945976 C15.7486445,7.94488659 14.8990156,8.74739878 13.9150156,8.74739878 M13.9150156,3.58417927 C12.1203047,3.58417927 10.6556758,4.93443537 10.6556758,6.79945976 C10.6556758,8.6478378 12.1203047,10.0147402 13.9150156,10.0147402 C15.7095664,10.0147402 17.1743555,8.65322805 17.1743555,6.79945976 C17.1743555,4.93443537 15.7095664,3.58417927 13.9150156,3.58417927" id="Fill-4" fill="#FFFFFF"></path>
                        <path d="M28.2547977,8.74739878 C27.2707977,8.74739878 26.521907,7.91730122 26.521907,6.79945976 C26.521907,5.66497195 27.2707977,4.8513622 28.2547977,4.8513622 C29.2275867,4.8513622 29.987879,5.68161829 29.987879,6.81039878 C29.9934539,7.93378902 29.2275867,8.74739878 28.2547977,8.74739878 L28.2547977,8.74739878 Z M29.8930359,4.30361829 L29.8425867,4.30361829 C29.5240359,3.92725244 28.9090359,3.58417927 28.1317977,3.58417927 C26.5105359,3.58417927 25.0961961,4.98421585 25.0961961,6.79945976 C25.0961961,8.6036061 26.5105359,10.0147402 28.1317977,10.0147402 C28.9090359,10.0147402 29.5240359,9.67150854 29.8425867,9.28420366 L29.8930359,9.28420366 L29.8930359,9.73254512 C29.8930359,10.9610451 29.2275867,11.6196061 28.159825,11.6196061 C27.2877742,11.6196061 26.745325,10.999728 26.521907,10.4740207 L25.2806961,10.9832402 C25.6384852,11.8355329 26.5832469,12.8812402 28.159825,12.8812402 C29.8315359,12.8812402 31.2458758,11.90735 31.2458758,9.53326463 L31.2458758,3.75016707 L29.8930359,3.75016707 L29.8930359,4.30361829 Z" id="Fill-6" fill="#FFFFFF"></path>
                        <path d="M21.1827301,8.74739878 C20.1987301,8.74739878 19.3491012,7.94488659 19.3491012,6.79945976 C19.3491012,5.64277683 20.1987301,4.8513622 21.1827301,4.8513622 C22.1667301,4.8513622 23.0165191,5.64277683 23.0165191,6.79945976 C23.0165191,7.94488659 22.1667301,8.74739878 21.1827301,8.74739878 M21.1827301,3.58417927 C19.3881793,3.58417927 17.9233902,4.93443537 17.9233902,6.79945976 C17.9233902,8.6478378 19.3881793,10.0147402 21.1827301,10.0147402 C22.9772809,10.0147402 24.4420699,8.65322805 24.4420699,6.79945976 C24.4420699,4.93443537 22.9772809,3.58417927 21.1827301,3.58417927" id="Fill-8" fill="#FFFFFF"></path>
                        <mask id="mask-4" fill="white">
                            <use xlink:href="#path-3"></use>
                        </mask>
                        <g id="Clip-11"></g>
                        <polygon id="Fill-10" fill="#FFFFFF" mask="url(#mask-4)" points="32.3638945 10.0146768 33.7671836 10.0146768 33.7671836 0.291310976 32.3638945 0.291310976"></polygon>
                        <path d="M37.9992965,4.79056341 C38.5752184,4.79056341 39.0670582,5.0838561 39.2292965,5.49890488 L36.294273,6.69966098 C36.294273,5.34940488 37.2614566,4.79056341 37.9992965,4.79056341 M38.0998746,8.74731951 C37.3730855,8.74731951 36.8588238,8.42089268 36.5232965,7.77342927 L40.8672145,5.99702683 L40.7219527,5.63175854 C40.4535309,4.91231951 39.6261637,3.5841 37.9432418,3.5841 C36.2718512,3.5841 34.8796129,4.88457561 34.8796129,6.79938049 C34.8796129,8.60352683 36.2548746,10.0148195 38.0998746,10.0148195 C39.5869254,10.0148195 40.4479254,9.1125878 40.8057145,8.59242927 L39.6987145,7.86205122 C39.3298746,8.39314878 38.8266637,8.74731951 38.0998746,8.74731951" id="Fill-12" fill="#FFFFFF" mask="url(#mask-4)"></path>
                    </g>
                    <path d="M9.40800005,28.9670647 L9.40800005,8.66729985 C9.40800005,7.95892164 9.81868311,7.34659714 10.4146547,7.05600004 L22.1570989,18.8137194 L10.4099322,30.5760002 C9.81651264,30.2845194 9.40800005,29.6736159 9.40800005,28.9670647 Z M25.8824285,22.5437415 L13.042814,29.9662908 L23.1691082,19.8269165 L25.8824285,22.5437415 Z M29.8734611,17.3940493 C30.300518,17.7213532 30.5760002,18.2370866 30.5760002,18.8171823 C30.5760002,19.3885609 30.308866,19.8973686 29.8927806,20.2252695 L27.1655074,21.8019642 L24.1809983,18.8137194 L27.16348,15.8273613 L29.8734611,17.3940493 Z M13.0503391,7.668635 L25.8804011,15.0856317 L23.1691082,17.8004029 L13.0503391,7.668635 Z" id="logo" fill="#FFFFFF" fill-rule="nonzero"></path>
                </g>
            </g>
        </g>
    </g>
</svg>