<?xml version="1.0" encoding="UTF-8"?>
<svg width="126px" height="38px" viewBox="0 0 126 38" version="1.1" xmlns="http://www.w3.org/2000/svg" xmlns:xlink="http://www.w3.org/1999/xlink">
    <!-- Generator: Sketch 57.1 (83088) - https://sketch.com -->
    <title>Google Play</title>
    <desc>Created with Sketch.</desc>
    <g id="WebDesign" stroke="none" stroke-width="1" fill="none" fill-rule="evenodd">
        <g id="1a5-Home" transform="translate(-264.000000, -7494.000000)">
            <g id="Footer" transform="translate(104.000000, 7370.000000)">
                <g id="Google-Play" transform="translate(160.000000, 124.000000)">
                    <rect id="button" fill="#1A2238" x="0" y="0" width="125.244001" height="37.6320002" rx="5.88000003"></rect>
                    <path d="M41.2574081,12.704 L41.2574081,6.43353124 L43.0274374,6.43353124 C43.5729479,6.43353124 44.0552869,6.55411597 44.4744687,6.79528906 C44.8936505,7.03646214 45.217363,7.37955441 45.4456161,7.82457617 C45.6738692,8.26959793 45.7894296,8.78064751 45.7923007,9.35774024 L45.7923007,9.75825782 C45.7923007,10.3497061 45.6781759,10.8679333 45.4499228,11.3129551 C45.2216697,11.7579769 44.8958038,12.0996336 44.4723153,12.3379356 C44.0488269,12.5762375 43.5557215,12.6982578 42.9929843,12.704 L41.2574081,12.704 Z M42.0842831,7.11398046 L42.0842831,12.0278574 L42.9542245,12.0278574 C43.5916105,12.0278574 44.087587,11.829754 44.4421689,11.433541 C44.7967507,11.0373281 44.974039,10.4731638 44.974039,9.74103126 L44.974039,9.3749668 C44.974039,8.66293199 44.8067994,8.1095342 44.4723153,7.71475683 C44.1378312,7.31997947 43.6633877,7.11972268 43.0489706,7.11398046 L42.0842831,7.11398046 Z M47.4109085,10.331041 C47.4109085,9.87453484 47.5006293,9.46397253 47.6800736,9.0993418 C47.8595178,8.73471107 48.1093005,8.4533467 48.4294291,8.25524024 C48.7495576,8.05713378 49.1149006,7.95808203 49.5254691,7.95808203 C50.159984,7.95808203 50.6731869,8.17771851 51.0650931,8.61699805 C51.4569994,9.05627759 51.6529496,9.64053933 51.6529496,10.3698008 L51.6529496,10.4257871 C51.6529496,10.8794222 51.5660999,11.2863957 51.3923978,11.6467197 C51.2186958,12.0070438 50.9703487,12.2876904 50.647349,12.488668 C50.3243493,12.6896456 49.9532642,12.7901328 49.5340824,12.7901328 C48.9024386,12.7901328 48.3906713,12.5704964 47.998765,12.1312168 C47.6068587,11.6919373 47.4109085,11.1105466 47.4109085,10.3870274 L47.4109085,10.331041 Z M48.2119437,10.4257871 C48.2119437,10.9425866 48.3318107,11.3574555 48.5715482,11.6704063 C48.8112857,11.9833571 49.1321273,12.1398301 49.5340824,12.1398301 C49.9389086,12.1398301 50.2604679,11.9812038 50.4987699,11.6639463 C50.7370719,11.3466889 50.8562211,10.9023915 50.8562211,10.331041 C50.8562211,9.81998378 50.7349186,9.40583265 50.4923099,9.0885752 C50.2497013,8.77131775 49.9274242,8.61269141 49.5254691,8.61269141 C49.1321273,8.61269141 48.8148746,8.76916446 48.5737015,9.08211524 C48.3325284,9.39506603 48.2119437,9.84295217 48.2119437,10.4257871 Z M57.483452,11.6058067 L58.3792332,8.04421484 L59.1759618,8.04421484 L57.81937,12.704 L57.1733739,12.704 L56.0407274,9.17255469 L54.9382274,12.704 L54.2922313,12.704 L52.9399461,8.04421484 L53.732368,8.04421484 L54.6496824,11.5325938 L55.7349559,8.04421484 L56.3766453,8.04421484 L57.483452,11.6058067 Z M61.4448723,8.04421484 L61.4707122,8.62991797 C61.8267296,8.18202511 62.2918421,7.95808203 62.8660638,7.95808203 C63.8508538,7.95808203 64.3475481,8.51363312 64.3561614,9.62475196 L64.3561614,12.704 L63.5594329,12.704 L63.5594329,9.62044532 C63.5565618,9.28452567 63.4797608,9.03617854 63.3290276,8.87539649 C63.1782945,8.71461443 62.9435849,8.63422461 62.6248919,8.63422461 C62.3664922,8.63422461 62.139678,8.70313017 61.9444427,8.84094336 C61.7492073,8.97875655 61.5970409,9.15963365 61.4879388,9.38358009 L61.4879388,12.704 L60.6912102,12.704 L60.6912102,8.04421484 L61.4448723,8.04421484 Z M67.128949,12.704 L66.3322204,12.704 L66.3322204,6.08899999 L67.128949,6.08899999 L67.128949,12.704 Z M68.8982892,10.331041 C68.8982892,9.87453484 68.98801,9.46397253 69.1674543,9.0993418 C69.3468985,8.73471107 69.5966812,8.4533467 69.9168097,8.25524024 C70.2369383,8.05713378 70.6022813,7.95808203 71.0128498,7.95808203 C71.6473647,7.95808203 72.1605676,8.17771851 72.5524738,8.61699805 C72.9443801,9.05627759 73.1403303,9.64053933 73.1403303,10.3698008 L73.1403303,10.4257871 C73.1403303,10.8794222 73.0534806,11.2863957 72.8797785,11.6467197 C72.7060765,12.0070438 72.4577293,12.2876904 72.1347297,12.488668 C71.81173,12.6896456 71.4406449,12.7901328 71.0214631,12.7901328 C70.3898193,12.7901328 69.8780519,12.5704964 69.4861457,12.1312168 C69.0942394,11.6919373 68.8982892,11.1105466 68.8982892,10.3870274 L68.8982892,10.331041 Z M69.6993244,10.4257871 C69.6993244,10.9425866 69.8191914,11.3574555 70.0589289,11.6704063 C70.2986664,11.9833571 70.6195079,12.1398301 71.0214631,12.1398301 C71.4262893,12.1398301 71.7478486,11.9812038 71.9861506,11.6639463 C72.2244526,11.3466889 72.3436018,10.9023915 72.3436018,10.331041 C72.3436018,9.81998378 72.2222993,9.40583265 71.9796906,9.0885752 C71.737082,8.77131775 71.4148049,8.61269141 71.0128498,8.61269141 C70.619508,8.61269141 70.3022553,8.76916446 70.0610822,9.08211524 C69.8199091,9.39506603 69.6993244,9.84295217 69.6993244,10.4257871 Z M77.7219069,12.704 C77.6759692,12.6121246 77.6386453,12.4484739 77.6099342,12.213043 C77.2395613,12.5977715 76.7974173,12.7901328 76.2834889,12.7901328 C75.8241116,12.7901328 75.4472843,12.6602171 75.1529957,12.4003819 C74.8587072,12.1405466 74.7115651,11.8110919 74.7115651,11.4120078 C74.7115651,10.9267906 74.896031,10.5499633 75.2649684,10.2815147 C75.6339058,10.0130661 76.1528508,9.87884376 76.821819,9.87884376 L77.5970143,9.87884376 L77.5970143,9.51277931 C77.5970143,9.23428182 77.5137534,9.01249204 77.3472291,8.84740333 C77.1807049,8.68231461 76.9352288,8.59977149 76.6107936,8.59977149 C76.3265539,8.59977149 76.0882555,8.67154811 75.8958912,8.81510352 C75.703527,8.95865893 75.6073463,9.13235836 75.6073463,9.33620704 L74.8063112,9.33620704 C74.8063112,9.10364728 74.8888543,8.87898644 75.053943,8.66221778 C75.2190317,8.44544911 75.4429748,8.27390298 75.7257789,8.14757422 C76.0085831,8.02124546 76.3193759,7.95808203 76.6581666,7.95808203 C77.1950639,7.95808203 77.6156749,8.09230432 77.9200124,8.36075293 C78.2243498,8.62920154 78.3822584,8.99885117 78.3937428,9.4697129 L78.3937428,11.6144199 C78.3937428,12.0422151 78.4482931,12.3824363 78.5573952,12.6350938 L78.5573952,12.704 L77.7219069,12.704 Z M76.3997682,12.0967637 C76.6495546,12.0967637 76.8864175,12.0321647 77.1103639,11.9029649 C77.3343103,11.773765 77.4965255,11.6058077 77.5970143,11.3990879 L77.5970143,10.4430137 L76.9725514,10.4430137 C75.9963747,10.4430137 75.5082936,10.7286847 75.5082936,11.3000352 C75.5082936,11.5498216 75.5915545,11.745054 75.7580787,11.8857383 C75.924603,12.0264226 76.1384974,12.0967637 76.3997682,12.0967637 Z M80.1544698,10.3353477 C80.1544698,9.62044175 80.3238627,9.04551097 80.6626534,8.61053809 C81.0014442,8.17556521 81.4450237,7.95808203 81.9934054,7.95808203 C82.5389159,7.95808203 82.9710112,8.14470126 83.2897042,8.51794532 L83.2897042,6.08899999 L84.0864327,6.08899999 L84.0864327,12.704 L83.3543038,12.704 L83.315544,12.2044297 C82.996851,12.5949004 82.5532715,12.7901328 81.9847921,12.7901328 C81.4450238,12.7901328 81.005033,12.5690608 80.6648067,12.1269102 C80.3245804,11.6847595 80.1544698,11.1076755 80.1544698,10.3956406 L80.1544698,10.3353477 Z M80.9511983,10.4257871 C80.9511983,10.954071 81.0602988,11.3675044 81.278503,11.6660996 C81.4967072,11.9646949 81.7981691,12.1139903 82.1828976,12.1139903 C82.6882126,12.1139903 83.0571444,11.8871761 83.2897042,11.433541 L83.2897042,9.29314063 C83.0514022,8.85386109 82.6853414,8.63422461 82.1915108,8.63422461 C81.8010401,8.63422461 81.4967072,8.78495553 81.278503,9.08642188 C81.0602988,9.38788823 80.9511983,9.83433885 80.9511983,10.4257871 Z M88.7060801,10.331041 C88.7060801,9.87453484 88.7958008,9.46397253 88.9752451,9.0993418 C89.1546894,8.73471107 89.404472,8.4533467 89.7246006,8.25524024 C90.0447291,8.05713378 90.4100722,7.95808203 90.8206406,7.95808203 C91.4551555,7.95808203 91.9683584,8.17771851 92.3602647,8.61699805 C92.7521709,9.05627759 92.9481211,9.64053933 92.9481211,10.3698008 L92.9481211,10.4257871 C92.9481211,10.8794222 92.8612714,11.2863957 92.6875693,11.6467197 C92.5138673,12.0070438 92.2655202,12.2876904 91.9425205,12.488668 C91.6195208,12.6896456 91.2484357,12.7901328 90.8292539,12.7901328 C90.1976101,12.7901328 89.6858428,12.5704964 89.2939365,12.1312168 C88.9020303,11.6919373 88.7060801,11.1105466 88.7060801,10.3870274 L88.7060801,10.331041 Z M89.5071152,10.4257871 C89.5071152,10.9425866 89.6269822,11.3574555 89.8667197,11.6704063 C90.1064572,11.9833571 90.4272988,12.1398301 90.8292539,12.1398301 C91.2340802,12.1398301 91.5556394,11.9812038 91.7939414,11.6639463 C92.0322434,11.3466889 92.1513926,10.9023915 92.1513926,10.331041 C92.1513926,9.81998378 92.0300901,9.40583265 91.7874814,9.0885752 C91.5448728,8.77131775 91.2225958,8.61269141 90.8206406,8.61269141 C90.4272988,8.61269141 90.1100461,8.76916446 89.868873,9.08211524 C89.6277,9.39506603 89.5071152,9.84295217 89.5071152,10.4257871 Z M95.4065239,8.04421484 L95.4323637,8.62991797 C95.7883811,8.18202511 96.2534937,7.95808203 96.8277153,7.95808203 C97.8125054,7.95808203 98.3091996,8.51363312 98.317813,9.62475196 L98.317813,12.704 L97.5210844,12.704 L97.5210844,9.62044532 C97.5182133,9.28452567 97.4414123,9.03617854 97.2906792,8.87539649 C97.139946,8.71461443 96.9052364,8.63422461 96.5865434,8.63422461 C96.3281437,8.63422461 96.1013295,8.70313017 95.9060942,8.84094336 C95.7108588,8.97875655 95.5586924,9.15963365 95.4495903,9.38358009 L95.4495903,12.704 L94.6528618,12.704 L94.6528618,8.04421484 L95.4065239,8.04421484 Z" id="Downloadon" fill="#FFFFFF" fill-rule="nonzero"></path>
                    <path d="M92.9177818,25.8119688 C92.9177818,26.9741934 92.6605343,27.8963795 92.1460318,28.5785548 C91.6315292,29.2607301 90.9424736,29.6018126 90.0788443,29.6018126 C89.0590267,29.6018126 88.278097,29.2435037 87.7360317,28.5268751 L87.7360317,32.3305001 L86.9160474,32.3305001 L86.9160474,22.0083438 L87.6809067,22.0083438 L87.7222505,23.0626094 C88.2597219,22.2678867 89.0383548,21.8705313 90.0581724,21.8705313 C90.9493643,21.8705313 91.6487558,22.2081686 92.1563677,22.8834532 C92.6639796,23.5587378 92.9177818,24.4958534 92.9177818,25.6948282 L92.9177818,25.8119688 Z M92.0909068,25.6672657 C92.0909068,24.7163547 91.8956743,23.9652841 91.5052036,23.4140313 C91.1147329,22.8627785 90.570379,22.5871563 89.8721255,22.5871563 C89.3668105,22.5871563 88.9327054,22.7088895 88.5697974,22.9523594 C88.2068893,23.1958294 87.9289702,23.5495446 87.7360317,24.0135157 L87.7360317,27.5897501 C87.933564,28.016971 88.2160768,28.343124 88.5835786,28.5682188 C88.9510805,28.7933137 89.3851855,28.9058595 89.8859068,28.9058595 C90.5795665,28.9058595 91.1204751,28.6290888 91.508649,28.0755391 C91.8968228,27.5219895 92.0909068,26.7192397 92.0909068,25.6672657 Z M95.6671412,29.4640001 L94.8402662,29.4640001 L94.8402662,18.88 L95.6671412,18.88 L95.6671412,29.4640001 Z M102.612891,29.4640001 C102.530203,29.2297177 102.477376,28.882893 102.454407,28.4235157 C102.164999,28.8002051 101.796354,29.0907569 101.348462,29.2951798 C100.900569,29.4996027 100.426269,29.6018126 99.9255474,29.6018126 C99.2089189,29.6018126 98.6289637,29.4019865 98.1856646,29.0023282 C97.7423655,28.60267 97.5207193,28.0973625 97.5207193,27.4863907 C97.5207193,26.7605746 97.8227553,26.1863616 98.4268365,25.7637344 C99.0309176,25.3411073 99.8727139,25.1297969 100.952251,25.1297969 L102.447516,25.1297969 L102.447516,24.2822501 C102.447516,23.7493724 102.283291,23.3301969 101.954837,23.024711 C101.626382,22.7192251 101.147488,22.5664844 100.518141,22.5664844 C99.9439196,22.5664844 99.4684712,22.713483 99.0917818,23.0074844 C98.7150924,23.3014859 98.5267506,23.6552011 98.5267506,24.0686407 L97.6998756,24.0617501 C97.6998756,23.4691533 97.9754978,22.9558069 98.5267506,22.5216954 C99.0780033,22.0875838 99.7555747,21.8705313 100.559485,21.8705313 C101.390958,21.8705313 102.046709,22.0783964 102.526758,22.4941329 C103.006808,22.9098693 103.253719,23.4898245 103.267501,24.2340157 L103.267501,27.7620157 C103.267501,28.4832381 103.343297,29.0229983 103.494891,29.3813126 L103.494891,29.4640001 L102.612891,29.4640001 Z M100.022016,28.8714063 C100.573269,28.8714063 101.065944,28.7381889 101.500055,28.4717501 C101.934167,28.2053113 102.249984,27.8492992 102.447516,27.4037032 L102.447516,25.7637344 L100.972922,25.7637344 C100.150637,25.772922 99.5075185,25.9233658 99.0435474,26.2150704 C98.5795764,26.506775 98.3475943,26.9075757 98.3475943,27.4174845 C98.3475943,27.8355178 98.5026318,28.1823425 98.8127115,28.4579688 C99.1227912,28.7335952 99.5258887,28.8714063 100.022016,28.8714063 Z M107.829094,28.2788126 L110.006532,22.0083438 L110.895423,22.0083438 L107.711954,30.7318751 L107.546579,31.1177501 C107.137733,32.0227234 106.506099,32.4752032 105.651657,32.4752032 C105.454125,32.4752032 105.242814,32.4430473 105.017719,32.3787345 L105.010829,31.6965626 L105.438047,31.7379064 C105.842299,31.7379064 106.169601,31.6379933 106.419962,31.4381642 C106.670322,31.238335 106.882781,30.8949557 107.057344,30.4080157 L107.422547,29.4019845 L104.611172,22.0083438 L105.513844,22.0083438 L107.829094,28.2788126 Z" id="play" fill="#FFFFFF" fill-rule="nonzero"></path>
                    <g id="Group-13" transform="translate(41.000000, 19.000000)" fill="#FFFFFF">
                        <path d="M5.10424375,4.69093902 L5.10424375,6.05229268 L8.39145078,6.05229268 C8.29087266,6.81596341 8.03366172,7.37496341 7.6424,7.76781707 C7.16161094,8.2437439 6.4124,8.76390244 5.10424375,8.76390244 C3.08034922,8.76390244 1.49832578,7.14809756 1.49832578,5.14467073 C1.49832578,3.14140244 3.08034922,1.52543902 5.10424375,1.52543902 C6.19442734,1.52543902 6.99376719,1.95158537 7.5809,2.4994878 L8.54792344,1.54208537 C7.73176719,0.756219512 6.63597813,0.158536585 5.10424375,0.158536585 C2.33129844,0.158536585 6.40625003e-05,2.39437805 6.40625003e-05,5.13928049 C6.40625003e-05,7.88418293 2.33129844,10.1198659 5.10424375,10.1198659 C6.60250547,10.1198659 7.73176719,9.63284146 8.61502891,8.72521951 C9.52087266,7.82869512 9.80595078,6.5615122 9.80595078,5.54307317 C9.80595078,5.2277439 9.78352891,4.93445122 9.73323984,4.69093902 L5.10424375,4.69093902 Z" id="Fill-1"></path>
                        <path d="M13.9150156,8.74739878 C12.9310156,8.74739878 12.0812266,7.94488659 12.0812266,6.79945976 C12.0812266,5.64277683 12.9310156,4.8513622 13.9150156,4.8513622 C14.8990156,4.8513622 15.7486445,5.64277683 15.7486445,6.79945976 C15.7486445,7.94488659 14.8990156,8.74739878 13.9150156,8.74739878 M13.9150156,3.58417927 C12.1203047,3.58417927 10.6556758,4.93443537 10.6556758,6.79945976 C10.6556758,8.6478378 12.1203047,10.0147402 13.9150156,10.0147402 C15.7095664,10.0147402 17.1743555,8.65322805 17.1743555,6.79945976 C17.1743555,4.93443537 15.7095664,3.58417927 13.9150156,3.58417927" id="Fill-4"></path>
                        <path d="M28.2547977,8.74739878 C27.2707977,8.74739878 26.521907,7.91730122 26.521907,6.79945976 C26.521907,5.66497195 27.2707977,4.8513622 28.2547977,4.8513622 C29.2275867,4.8513622 29.987879,5.68161829 29.987879,6.81039878 C29.9934539,7.93378902 29.2275867,8.74739878 28.2547977,8.74739878 L28.2547977,8.74739878 Z M29.8930359,4.30361829 L29.8425867,4.30361829 C29.5240359,3.92725244 28.9090359,3.58417927 28.1317977,3.58417927 C26.5105359,3.58417927 25.0961961,4.98421585 25.0961961,6.79945976 C25.0961961,8.6036061 26.5105359,10.0147402 28.1317977,10.0147402 C28.9090359,10.0147402 29.5240359,9.67150854 29.8425867,9.28420366 L29.8930359,9.28420366 L29.8930359,9.73254512 C29.8930359,10.9610451 29.2275867,11.6196061 28.159825,11.6196061 C27.2877742,11.6196061 26.745325,10.999728 26.521907,10.4740207 L25.2806961,10.9832402 C25.6384852,11.8355329 26.5832469,12.8812402 28.159825,12.8812402 C29.8315359,12.8812402 31.2458758,11.90735 31.2458758,9.53326463 L31.2458758,3.75016707 L29.8930359,3.75016707 L29.8930359,4.30361829 Z" id="Fill-6"></path>
                        <path d="M21.1827301,8.74739878 C20.1987301,8.74739878 19.3491012,7.94488659 19.3491012,6.79945976 C19.3491012,5.64277683 20.1987301,4.8513622 21.1827301,4.8513622 C22.1667301,4.8513622 23.0165191,5.64277683 23.0165191,6.79945976 C23.0165191,7.94488659 22.1667301,8.74739878 21.1827301,8.74739878 M21.1827301,3.58417927 C19.3881793,3.58417927 17.9233902,4.93443537 17.9233902,6.79945976 C17.9233902,8.6478378 19.3881793,10.0147402 21.1827301,10.0147402 C22.9772809,10.0147402 24.4420699,8.65322805 24.4420699,6.79945976 C24.4420699,4.93443537 22.9772809,3.58417927 21.1827301,3.58417927" id="Fill-8"></path>
                        <polygon id="Fill-10" points="32.3638945 10.0146768 33.7671836 10.0146768 33.7671836 0.291310976 32.3638945 0.291310976"></polygon>
                        <path d="M37.9992965,4.79056341 C38.5752184,4.79056341 39.0670582,5.0838561 39.2292965,5.49890488 L36.294273,6.69966098 C36.294273,5.34940488 37.2614566,4.79056341 37.9992965,4.79056341 M38.0998746,8.74731951 C37.3730855,8.74731951 36.8588238,8.42089268 36.5232965,7.77342927 L40.8672145,5.99702683 L40.7219527,5.63175854 C40.4535309,4.91231951 39.6261637,3.5841 37.9432418,3.5841 C36.2718512,3.5841 34.8796129,4.88457561 34.8796129,6.79938049 C34.8796129,8.60352683 36.2548746,10.0148195 38.0998746,10.0148195 C39.5869254,10.0148195 40.4479254,9.1125878 40.8057145,8.59242927 L39.6987145,7.86205122 C39.3298746,8.39314878 38.8266637,8.74731951 38.0998746,8.74731951" id="Fill-12"></path>
                    </g>
                    <path d="M9.40800005,28.9670647 L9.40800005,8.66729985 C9.40800005,7.95892164 9.81868311,7.34659714 10.4146547,7.05600004 L22.1570989,18.8137194 L10.4099322,30.5760002 C9.81651264,30.2845194 9.40800005,29.6736159 9.40800005,28.9670647 Z M25.8824285,22.5437415 L13.042814,29.9662908 L23.1691082,19.8269165 L25.8824285,22.5437415 Z M29.8734611,17.3940493 C30.300518,17.7213532 30.5760002,18.2370866 30.5760002,18.8171823 C30.5760002,19.3885609 30.308866,19.8973686 29.8927806,20.2252695 L27.1655074,21.8019642 L24.1809983,18.8137194 L27.16348,15.8273613 L29.8734611,17.3940493 Z M13.0503391,7.668635 L25.8804011,15.0856317 L23.1691082,17.8004029 L13.0503391,7.668635 Z" id="logo" fill="#FFFFFF" fill-rule="nonzero"></path>
                </g>
            </g>
        </g>
    </g>
</svg>