<?xml version="1.0" encoding="UTF-8"?>
<svg width="24px" height="24px" viewBox="0 0 24 24" version="1.1" xmlns="http://www.w3.org/2000/svg" xmlns:xlink="http://www.w3.org/1999/xlink">
    <!-- Generator: Sketch 54.1 (76490) - https://sketchapp.com -->
    <title>Pinterest</title>
    <desc>Created with Sketch.</desc>
    <g id="WebDesign" stroke="none" stroke-width="1" fill="none" fill-rule="evenodd">
        <g id="1a4-Home" transform="translate(-1076.000000, -6665.000000)" fill="#CC2127">
            <g id="Footer" transform="translate(104.000000, 6494.000000)">
                <g id="Pinterest" transform="translate(972.000000, 171.000000)">
                    <path d="M11.520676,0 C5.15883516,0 0,5.15748042 0,11.520676 C0,16.2365124 2.83681744,20.2898829 6.89696161,22.0713609 C6.86444794,21.2680024 6.89154266,20.3007208 7.09610782,19.4255613 C7.31828454,18.4907934 8.57818913,13.1490688 8.57818913,13.1490688 C8.57818913,13.1490688 8.21105564,12.4134471 8.21105564,11.325594 C8.21105564,9.61862648 9.20136775,8.34381979 10.4328229,8.34381979 C11.4800339,8.34381979 11.9867052,9.13092147 11.9867052,10.0738178 C11.9867052,11.1264478 11.3147561,12.7020059 10.9692984,14.1610567 C10.6807396,15.3843834 11.5816391,16.3801145 12.7873543,16.3801145 C14.9698342,16.3801145 16.4397229,13.5771654 16.4397229,10.2553525 C16.4397229,7.73147906 14.739529,5.84162216 11.6466665,5.84162216 C8.15280199,5.84162216 5.97574104,8.44677973 5.97574104,11.3567529 C5.97574104,12.3619671 6.27107352,13.0691394 6.73439327,13.6164528 C6.94844158,13.8697884 6.97689104,13.9700389 6.89967108,14.2599524 C6.84548163,14.4699365 6.71813644,14.9820268 6.66530173,15.1838825 C6.58808177,15.4751507 6.35235768,15.5808202 6.08953888,15.4724413 C4.47875762,14.8153942 3.72958855,13.0528826 3.72958855,11.0709036 C3.72958855,7.79921586 6.48918603,3.87319058 11.96232,3.87319058 C16.3611482,3.87319058 19.2562193,7.0581752 19.2562193,10.473465 C19.2562193,14.9928647 16.7445385,18.3688671 13.0393352,18.3688671 C11.7970422,18.3688671 10.6265502,17.696918 10.2255483,16.9342015 C10.2255483,16.9342015 9.55630862,19.5881296 9.41541606,20.1002199 C9.17156356,20.987572 8.6933417,21.8762789 8.25576194,22.5671943 C9.29213507,22.8733647 10.3867619,23.0399973 11.520676,23.0399973 C17.8825168,23.0399973 23.0399973,17.8825168 23.0399973,11.520676 C23.0399973,5.15748042 17.8825168,0 11.520676,0"></path>
                </g>
            </g>
        </g>
    </g>
</svg>