<svg xmlns="http://www.w3.org/2000/svg" xmlns:xlink="http://www.w3.org/1999/xlink" viewBox="0 0 279 349"><defs><linearGradient id="c" x1="50%" x2="50%" y1="0%" y2="100%"><stop offset="0%" stop-color="#F5F5F5"/><stop offset="100%" stop-color="#FFF"/></linearGradient><path id="a" d="M40.002 0h196.846c13.91 0 18.954 1.448 24.039 4.168 5.085 2.72 9.076 6.71 11.795 11.795 2.72 5.085 4.168 10.13 4.168 24.039V346.91H0V40.002c0-13.91 1.448-18.954 4.168-24.039 2.72-5.085 6.71-9.076 11.795-11.795C21.048 1.448 26.093 0 40.002 0z"/><filter id="b" width="103.8%" height="103%" x="-1.9%" y="-1.5%" filterUnits="objectBoundingBox"><feGaussianBlur in="SourceAlpha" result="shadowBlurInner1" stdDeviation="4.5"/><feOffset in="shadowBlurInner1" result="shadowOffsetInner1"/><feComposite in="shadowOffsetInner1" in2="SourceAlpha" k2="-1" k3="1" operator="arithmetic" result="shadowInnerInner1"/><feColorMatrix in="shadowInnerInner1" values="0 0 0 0 0 0 0 0 0 0 0 0 0 0 0 0 0 0 0.08 0"/></filter></defs><g fill="none" fill-rule="evenodd" transform="translate(1 1)"><mask id="d" fill="#fff"><use xlink:href="#a"/></mask><use fill="#FFF" xlink:href="#a"/><use fill="#000" filter="url(#b)" xlink:href="#a"/><path stroke="#000" stroke-opacity=".05" stroke-width=".715" d="M40.002-.357h196.846c12.736 0 18.37 1.088 24.207 4.21 5.148 2.753 9.19 6.794 11.942 11.942 3.122 5.838 4.21 11.471 4.21 24.207v307.265H-.357V40.002c0-12.736 1.088-18.37 4.21-24.207 2.753-5.148 6.794-9.19 11.942-11.942C21.633.73 27.266-.357 40.002-.357z"/><path stroke="url(#c)" stroke-linejoin="square" stroke-width="5.65" d="M2.825 344.085h271.2V40.002c0-12.255-.992-17.393-3.834-22.706-2.456-4.593-6.044-8.18-10.637-10.637-5.313-2.842-10.45-3.834-22.706-3.834H40.002c-12.255 0-17.393.992-22.706 3.834-4.593 2.456-8.18 6.044-10.637 10.637-2.842 5.313-3.834 10.45-3.834 22.706v304.083z"/><path fill="#F5F5F5" d="M57.63 5.65h161.59v4.437c0 7.466-.84 10.487-2.415 13.434a16.428 16.428 0 01-6.834 6.834c-2.947 1.576-5.968 2.415-13.434 2.415H80.313c-7.466 0-10.487-.84-13.434-2.415a16.428 16.428 0 01-6.834-6.834c-1.576-2.947-2.415-5.968-2.415-13.434V5.65z" mask="url(#d)"/><g fill="#DEDEDE" mask="url(#d)"><g transform="translate(113 13.56)"><rect width="36.16" height="5.424" y="1.808" rx="2.712"/><rect width="9.04" height="9.04" x="43.392" rx="4.52"/></g></g></g></svg>