<svg xmlns="http://www.w3.org/2000/svg" viewBox="0 0 277 347"><defs><linearGradient id="a" x1="50%" x2="50%" y1="0%" y2="100%"><stop offset="0%" stop-color="#F5F5F5"/><stop offset="100%" stop-color="#FFF"/></linearGradient></defs><g fill="none" fill-rule="evenodd"><path fill="url(#a)" fill-rule="nonzero" d="M260.887 4.168c5.085 2.72 9.076 6.71 11.795 11.795l.353.674c2.454 4.8 3.775 9.912 3.815 22.766V346.91H0V40.002c0-13.91 1.448-18.954 4.168-24.039 2.72-5.085 6.71-9.076 11.795-11.795l.674-.353C21.437 1.361 26.549.04 39.403 0h197.445c13.91 0 18.954 1.448 24.039 4.168zM271.2 39.42l-.013-1.661c-.114-9.85-.993-14.27-3.233-18.645l-.254-.486c-2.193-4.1-5.377-7.285-9.478-9.478-4.849-2.593-9.545-3.5-21.374-3.5H39.42l-1.661.013c-9.85.114-14.27.993-18.645 3.233l-.486.254c-4.1 2.193-7.285 5.377-9.478 9.478-2.593 4.849-3.5 9.545-3.5 21.374v306.907H271.2V39.42z"/><path fill="#F5F5F5" d="M57.63 4.65h161.59V9.7c0 7.93-.84 10.874-2.415 13.82a16.428 16.428 0 01-6.834 6.835c-2.947 1.576-5.89 2.415-13.82 2.415H80.7c-7.93 0-10.874-.84-13.82-2.415a16.428 16.428 0 01-6.835-6.834c-1.576-2.947-2.415-5.89-2.415-13.82V4.65z"/><g fill="#DEDEDE" transform="translate(113 13.56)"><rect width="36.16" height="5.424" y="1.808" rx="2.712"/><rect width="9.04" height="9.04" x="43.392" rx="4.52"/></g></g></svg>