<svg xmlns="http://www.w3.org/2000/svg" viewBox="0 0 581 416"><g fill="none" fill-rule="evenodd"><g stroke="#000" stroke-linecap="square" stroke-width="1.401" opacity=".2"><path d="M2.198 35.11h574.475M2.198 123.054h574.475M2.198 207.124h574.475M2.198 293.996h574.475M2.198 380.868h574.475M193.393 381.306v-346.5M383.95 381.306v-346.5"/></g><g transform="translate(-6.243 -12.467)"><path stroke="#FF7171" stroke-linecap="round" stroke-linejoin="round" stroke-width="5" d="M9.078 77.342c101.271 393.314 292.945 414.367 575.02 63.16"/><g transform="translate(408.243 130.467)"><rect width="178" height="36.52" fill="#FF7171" rx="4.98"/><text fill="#FFF" font-family="Roboto-Bold, Roboto" font-size="18" font-weight="bold"><tspan x="12" y="25">Régimes restrictifs</tspan></text></g><path stroke="#3DB5A9" stroke-linecap="round" stroke-linejoin="round" stroke-width="5" d="M9.078 77.342c155.595 207.08 347.268 310.619 575.02 310.619"/><rect width="99" height="36.52" x="488.243" y="357.467" fill="#3DB5A9" rx="4.98"/><g fill="#FFF" fill-rule="nonzero"><path d="M528.711 372.73v11.534h1.822V371.59zM534.531 369.027l-1.821 1.187v9.731c0 2.326 1.821 4.272 3.998 4.272h1.467v-1.946h-1.111c-1.466 0-2.577-1.187-2.577-2.753v-5.032h3.643v-1.946h-3.643l.044-3.513zM548.97 384.264h-1.82v-7.025c-.178-1.566-1.29-2.753-2.755-2.753-1.467 0-2.755 1.376-2.755 2.943v6.646h-1.822V372.73h1.822v.996c.71-.57 1.822-.996 2.755-.996 2.532 0 4.576 2.136 4.576 4.889v6.645zM560.256 379.185v-.76c0-3.132-2.177-5.838-4.932-5.838-2.754 0-4.931 2.516-4.931 5.839 0 3.323 2.177 5.838 4.931 5.838 1.644 0 3.288-.996 4.177-2.515l-1.644-.997c-.533.997-1.467 1.566-2.533 1.566-1.466 0-2.754-1.376-3.11-3.133h8.042zm-4.887-4.7c1.466 0 2.532 1.188 2.932 2.754h-6.042c.533-1.566 1.643-2.753 3.11-2.753z"/><path d="M571.23 372.73h-2.355l-3.288 4.13-3.287-4.13h-2.4l4.399 5.648-4.576 5.886h2.399l3.465-4.51 3.466 4.51h2.355l-4.754-5.886zM577.805 372.73h-3.643v-3.513l-1.821 1.187v9.731c0 2.326 1.821 4.272 3.998 4.272h1.466v-1.946h-1.11c-1.467 0-2.577-1.187-2.577-2.754v-5.031h3.643v-1.946h.044zM521.78 371.78v12.484h2v-9.778h3.643v-1.946h-3.644v-.38c0-1.567 1.111-2.753 2.577-2.753h4.399v-1.946h-4.976c-2.355 0-3.999 1.993-3.999 4.32M516.734 367.366l-7.848 3.417v13.671c.93-.184 1.818-.37 2.749-.554v-11.408l6.207-2.679-1.108-2.447zM498.174 367.366l-.931 2.494 6.207 2.678V383.9c.931.37 1.818.554 2.749.554v-13.67l-8.025-3.418zM508.886 367.366c0-.973-.7-1.9-1.791-1.9-1.093 0-1.792.742-1.792 1.9 0 .972.7 1.898 1.792 1.898s1.79-.972 1.79-1.898"/></g><text fill="#1A2238" font-family="Campton-Medium, Campton" font-size="18" font-weight="400" transform="translate(.93 .155)"><tspan x="0" y="18"> Comparatif perte de poids</tspan></text></g><g fill="#707070" font-family="Roboto-Regular, Roboto" font-size="18"><text transform="translate(-1.077 397.547)"><tspan x=".829" y="17.36">1er mois</tspan></text><text transform="translate(-1.077 397.547)"><tspan x="488.446" y="17.36">6 ème mois</tspan></text></g></g></svg>