<?xml version="1.0" encoding="UTF-8"?>
<svg width="580px" height="416px" viewBox="0 0 580 416" version="1.1" xmlns="http://www.w3.org/2000/svg" xmlns:xlink="http://www.w3.org/1999/xlink">
    <!-- Generator: Sketch 54.1 (76490) - https://sketchapp.com -->
    <title>Graph</title>
    <desc>Created with Sketch.</desc>
    <g id="WebDesign" stroke="none" stroke-width="1" fill="none" fill-rule="evenodd">
        <g id="2a2-PertedePoids-" transform="translate(-728.000000, -194.000000)">
            <g id="Cover" transform="translate(128.000000, 180.000000)">
                <g id="Graph" transform="translate(593.000000, 0.000000)">
                    <g id="Lines" transform="translate(0.757490, 0.685978)">
                        <g id="Horizontal" transform="translate(8.440714, 46.644284)" opacity="0.2" stroke="#000000" stroke-linecap="square" stroke-width="1.40115849">
                            <path d="M0,1.77921549 L574.474982,1.77921549" id="Line"></path>
                            <path d="M0,89.7241049 L574.474982,89.7241049" id="Line-Copy"></path>
                            <path d="M0,173.793614 L574.474982,173.793614" id="Line-Copy-2"></path>
                            <path d="M0,260.665441 L574.474982,260.665441" id="Line-Copy-3"></path>
                            <path d="M0,347.537267 L574.474982,347.537267" id="Line-Copy-4"></path>
                            <path d="M191.194469,347.97574 L191.194469,1.47657869" id="Line-Copy-10"></path>
                            <path d="M381.752024,347.97574 L381.752024,1.47657869" id="Line-Copy-11"></path>
                        </g>
                        <g id="Graph" transform="translate(0.000000, 0.847187)">
                            <path d="M9.96855346,222 C88.6933291,443.535788 279.714294,444.660923 583.031447,225.375406" id="Path-2" stroke="#FF7171" stroke-width="5" stroke-linecap="round" stroke-linejoin="round"></path>
                            <path d="M9.96855346,222 C83.5288663,159.008446 274.208112,106.008446 582.006289,63" id="Path-2-Copy" stroke="#3DB5A9" stroke-width="5" stroke-linecap="round" stroke-linejoin="round"></path>
                            <rect id="Rectangle" fill="#3DB5A9" x="486.24251" y="46.4668354" width="99" height="36.5199993" rx="4.9799999"></rect>
                            <g id="logo-fullNC2" transform="translate(495.242510, 54.466835)" fill="#FFFFFF" fill-rule="nonzero">
                                <g id="Group" transform="translate(24.182189, 1.898750)">
                                    <polygon id="Path" points="7.28639197 5.36396866 7.28639197 16.8988747 9.10798996 16.8988747 9.10798996 4.22471868"></polygon>
                                    <g>
                                        <path d="M13.1066197,1.66140622 L11.2850217,2.84812495 L11.2850217,5.17409366 L11.2850217,7.12031238 L11.2850217,12.5792185 C11.2850217,14.9051872 13.1066197,16.851406 15.2836514,16.851406 L16.7498157,16.851406 L16.7498157,14.9051872 L15.6390852,14.9051872 C14.172921,14.9051872 13.0621905,13.7184685 13.0621905,12.1519998 L13.0621905,7.12031238 L16.7053865,7.12031238 L16.7053865,5.17409366 L13.0621905,5.17409366 L13.1066197,1.66140622 L13.1066197,1.66140622 Z" id="Path"></path>
                                        <path d="M27.546116,16.8988747 L25.724518,16.8988747 L25.724518,9.87349983 C25.5468011,8.30703111 24.4360706,7.12031238 22.9699064,7.12031238 C21.5037421,7.12031238 20.2152948,8.49690611 20.2152948,10.0633748 L20.2152948,16.7089997 L18.3936968,16.7089997 L18.3936968,5.36396866 L20.2152948,5.36396866 L20.2152948,6.36081239 C20.9261623,5.7911874 22.0368928,5.36396866 22.9699064,5.36396866 C25.5023719,5.36396866 27.546116,7.50006237 27.546116,10.2532498 C27.546116,10.2532498 27.546116,16.8988747 27.546116,16.8988747 Z" id="Path"></path>
                                        <path d="M38.8311377,11.8197185 L38.8311377,11.0602186 C38.8311377,7.92728111 36.6541059,5.22156241 33.8994943,5.22156241 C31.1448827,5.22156241 28.967851,7.73740612 28.967851,11.0602186 C28.967851,14.383031 31.1448827,16.8988747 33.8994943,16.8988747 C35.5433755,16.8988747 37.1872566,15.902031 38.075841,14.383031 L36.4319598,13.3861873 C35.8988092,14.383031 34.9657956,14.952656 33.8994943,14.952656 C32.4333301,14.952656 31.1448827,13.5760623 30.789449,11.8197185 C30.789449,11.8197185 38.8311377,11.8197185 38.8311377,11.8197185 Z M33.9439236,7.12031238 C35.4100878,7.12031238 36.4763891,8.30703111 36.876252,9.87349983 L30.8338782,9.87349983 C31.3670288,8.30703111 32.4777593,7.12031238 33.9439236,7.12031238 L33.9439236,7.12031238 Z" id="Shape"></path>
                                        <polygon id="Path" points="49.8051549 5.36396866 47.4504062 5.36396866 44.162644 9.49374984 40.8748818 5.36396866 38.4757039 5.36396866 42.8741966 11.0127498 38.297987 16.8988747 40.6971649 16.8988747 44.162644 12.3893435 47.6281231 16.8988747 49.9828717 16.8988747 45.2289453 11.0127498"></polygon>
                                        <path d="M56.3806793,5.36396866 L52.7374833,5.36396866 L52.7374833,1.85128122 L50.9158853,3.03799995 L50.9158853,5.36396866 L50.9158853,7.31018738 L50.9158853,12.7690935 C50.9158853,15.0950622 52.7374833,17.041281 54.9145151,17.041281 L56.3806793,17.041281 L56.3806793,15.0950622 L55.2699488,15.0950622 C53.8037846,15.0950622 52.6930541,13.9083435 52.6930541,12.3418748 L52.6930541,7.31018738 L56.3362501,7.31018738 L56.3362501,5.36396866 L56.3806793,5.36396866 L56.3806793,5.36396866 Z" id="Path"></path>
                                        <path d="M0.355433755,4.41459367 L0.355433755,16.8988747 L2.35474862,16.8988747 L2.35474862,7.12031238 L5.99794461,7.12031238 L5.99794461,5.17409366 L2.35474862,5.17409366 L2.35474862,4.79434367 C2.35474862,3.22787495 3.46547911,2.04115622 4.93164334,2.04115622 L9.33013606,2.04115622 L9.33013606,0.0949374984 L4.35406349,0.0949374984 C1.99931487,0.0949374984 0.355433755,2.08862496 0.355433755,4.41459367" id="Path"></path>
                                    </g>
                                </g>
                                <path d="M19.4911816,1.89874997 L11.6432764,5.31649991 L11.6432764,18.9874997 C12.5743838,18.8027564 13.4611527,18.6180132 14.3922601,18.43327 L14.3922601,7.02537488 L20.5996428,4.3465979 L19.4911816,1.89874997 Z" id="Path"></path>
                                <path d="M0.931107401,1.89874997 L0,4.39278371 L6.20738268,7.07156069 L6.20738268,18.43327 C7.13849008,18.8027564 8.02525903,18.9874997 8.95636643,18.9874997 L8.95636643,5.31649991 L0.931107401,1.89874997 Z" id="Path"></path>
                                <path d="M11.6432764,1.89874997 C11.6432764,0.926219496 10.9442429,0 9.85200308,0 C8.75976327,0 8.06072979,0.740975597 8.06072979,1.89874997 C8.06072979,2.87128044 8.75976327,3.79749994 9.85200308,3.79749994 C10.9442429,3.79749994 11.6432764,2.82496946 11.6432764,1.89874997" id="Path"></path>
                            </g>
                            <g id="Badge-1" transform="translate(408.242510, 203.466835)">
                                <rect id="Rectangle-Copy-2" fill="#FF7171" x="0" y="0" width="178" height="36.5199993" rx="4.9799999"></rect>
                                <text id="Regimes-restrictifs" font-family="Roboto-Bold, Roboto" font-size="18" font-weight="bold" fill="#FFFFFF">
                                    <tspan x="12.0439453" y="25">Regimes restrictifs</tspan>
                                </text>
                            </g>
                            <g id="bien-etre" transform="translate(0.930653, 0.154978)" fill="#1A2238" font-family="Campton-Medium, Campton" font-size="18" font-weight="400" line-spacing="40.5154271">
                                <text id="Comparatif-perte-de">
                                    <tspan x="0" y="18"> Comparatif perte de poids</tspan>
                                </text>
                            </g>
                        </g>
                    </g>
                    <g id="Exercice" transform="translate(5.923490, 411.547327)" fill="#707070" font-family="Roboto-Regular, Roboto" font-size="18" font-weight="normal">
                        <text id="1er-mois">
                            <tspan x="0.829081019" y="17.3595154">1er mois</tspan>
                        </text>
                        <text id="6-ème-mois">
                            <tspan x="488.445847" y="17.3595154">6 ème mois</tspan>
                        </text>
                    </g>
                </g>
            </g>
        </g>
    </g>
</svg>