<svg xmlns="http://www.w3.org/2000/svg" xmlns:xlink="http://www.w3.org/1999/xlink" viewBox="0 0 335 369"><defs><linearGradient id="d" x1="50%" x2="50%" y1="0%" y2="100%"><stop offset="0%" stop-color="#F5F5F5"/><stop offset="100%" stop-color="#FFF"/></linearGradient><path id="a" d="M40.002 0h196.846c13.91 0 18.954 1.448 24.039 4.168 5.085 2.72 9.076 6.71 11.795 11.795 2.72 5.085 4.168 10.13 4.168 24.039V346.91H0V40.002c0-13.91 1.448-18.954 4.168-24.039 2.72-5.085 6.71-9.076 11.795-11.795C21.048 1.448 26.093 0 40.002 0z"/><filter id="b" width="142%" height="135.3%" x="-21%" y="-12.4%" filterUnits="objectBoundingBox"><feMorphology in="SourceAlpha" operator="dilate" radius=".715" result="shadowSpreadOuter1"/><feOffset dy="21" in="shadowSpreadOuter1" result="shadowOffsetOuter1"/><feGaussianBlur in="shadowOffsetOuter1" result="shadowBlurOuter1" stdDeviation="14"/><feComposite in="shadowBlurOuter1" in2="SourceAlpha" operator="out" result="shadowBlurOuter1"/><feColorMatrix in="shadowBlurOuter1" result="shadowMatrixOuter1" values="0 0 0 0 0 0 0 0 0 0 0 0 0 0 0 0 0 0 0.02 0"/><feMorphology in="SourceAlpha" operator="dilate" radius=".715" result="shadowSpreadOuter2"/><feOffset dy="14" in="shadowSpreadOuter2" result="shadowOffsetOuter2"/><feGaussianBlur in="shadowOffsetOuter2" result="shadowBlurOuter2" stdDeviation="12.5"/><feComposite in="shadowBlurOuter2" in2="SourceAlpha" operator="out" result="shadowBlurOuter2"/><feColorMatrix in="shadowBlurOuter2" result="shadowMatrixOuter2" values="0 0 0 0 0 0 0 0 0 0 0 0 0 0 0 0 0 0 0.04 0"/><feMorphology in="SourceAlpha" operator="dilate" radius=".715" result="shadowSpreadOuter3"/><feOffset dy="8" in="shadowSpreadOuter3" result="shadowOffsetOuter3"/><feGaussianBlur in="shadowOffsetOuter3" result="shadowBlurOuter3" stdDeviation="10.5"/><feComposite in="shadowBlurOuter3" in2="SourceAlpha" operator="out" result="shadowBlurOuter3"/><feColorMatrix in="shadowBlurOuter3" result="shadowMatrixOuter3" values="0 0 0 0 0 0 0 0 0 0 0 0 0 0 0 0 0 0 0.04 0"/><feMorphology in="SourceAlpha" operator="dilate" radius=".715" result="shadowSpreadOuter4"/><feOffset dy="3" in="shadowSpreadOuter4" result="shadowOffsetOuter4"/><feGaussianBlur in="shadowOffsetOuter4" result="shadowBlurOuter4" stdDeviation="3.5"/><feComposite in="shadowBlurOuter4" in2="SourceAlpha" operator="out" result="shadowBlurOuter4"/><feColorMatrix in="shadowBlurOuter4" result="shadowMatrixOuter4" values="0 0 0 0 0 0 0 0 0 0 0 0 0 0 0 0 0 0 0.06 0"/><feMerge><feMergeNode in="shadowMatrixOuter1"/><feMergeNode in="shadowMatrixOuter2"/><feMergeNode in="shadowMatrixOuter3"/><feMergeNode in="shadowMatrixOuter4"/></feMerge></filter><filter id="c" width="127.6%" height="123.7%" x="-13.8%" y="-6.7%" filterUnits="objectBoundingBox"><feGaussianBlur in="SourceAlpha" result="shadowBlurInner1" stdDeviation="4.5"/><feOffset in="shadowBlurInner1" result="shadowOffsetInner1"/><feComposite in="shadowOffsetInner1" in2="SourceAlpha" k2="-1" k3="1" operator="arithmetic" result="shadowInnerInner1"/><feColorMatrix in="shadowInnerInner1" values="0 0 0 0 0 0 0 0 0 0 0 0 0 0 0 0 0 0 0.08 0"/></filter></defs><g fill="none" fill-rule="evenodd" transform="translate(29 22)"><use fill="#000" filter="url(#b)" xlink:href="#a"/><use fill="#FFF" xlink:href="#a"/><use fill="#000" filter="url(#c)" xlink:href="#a"/><path stroke="#000" stroke-opacity=".05" stroke-width=".715" d="M40.002-.357h196.846c12.736 0 18.37 1.088 24.207 4.21 5.148 2.753 9.19 6.794 11.942 11.942 3.122 5.838 4.21 11.471 4.21 24.207v307.265H-.357V40.002c0-12.736 1.088-18.37 4.21-24.207 2.753-5.148 6.794-9.19 11.942-11.942C21.633.73 27.266-.357 40.002-.357z"/><path stroke="url(#d)" stroke-linejoin="square" stroke-width="5.65" d="M2.825 344.085h271.2V40.002c0-12.255-.992-17.393-3.834-22.706-2.456-4.593-6.044-8.18-10.637-10.637-5.313-2.842-10.45-3.834-22.706-3.834H40.002c-12.255 0-17.393.992-22.706 3.834-4.593 2.456-8.18 6.044-10.637 10.637-2.842 5.313-3.834 10.45-3.834 22.706v304.083z"/></g></svg>