<?xml version="1.0" encoding="UTF-8"?>
<svg width="134px" height="31px" viewBox="0 0 134 31" version="1.1" xmlns="http://www.w3.org/2000/svg" xmlns:xlink="http://www.w3.org/1999/xlink">
    <!-- Generator: Sketch 54.1 (76490) - https://sketchapp.com -->
    <title>Logo</title>
    <desc>Created with Sketch.</desc>
    <g id="Symbols" stroke="none" stroke-width="1" fill="none" fill-rule="evenodd">
        <g id="Header" transform="translate(-655.000000, -3.000000)" fill="#1A2238">
            <g transform="translate(55.000000, 0.000000)" id="Logo">
                <g transform="translate(600.000000, 3.000000)">
                    <g id="logo-fullNC2">
                        <polygon id="Path" fill-rule="nonzero" points="52.3184551 11.8575 52.3184551 30.69 55.346974 30.69 55.346974 9.9975"></polygon>
                        <path d="M61.9949422,5.8125 L58.9664234,7.75 L58.9664234,11.5475 L58.9664234,14.725 L58.9664234,23.6375 C58.9664234,27.435 61.9949422,30.6125 65.6143916,30.6125 L68.05198,30.6125 L68.05198,27.435 L66.2053221,27.435 C63.7677338,27.435 61.9210759,25.4975 61.9210759,22.94 L61.9210759,14.725 L67.9781137,14.725 L67.9781137,11.5475 L61.9210759,11.5475 L61.9949422,5.8125 L61.9949422,5.8125 Z" id="Path" fill-rule="nonzero"></path>
                        <path d="M86.0014943,30.69 L82.9729755,30.69 L82.9729755,19.22 C82.6775102,16.6625 80.8308523,14.725 78.393264,14.725 C75.9556756,14.725 73.8135525,16.9725 73.8135525,19.53 L73.8135525,30.38 L70.7850336,30.38 L70.7850336,11.8575 L73.8135525,11.8575 L73.8135525,13.485 C74.9954135,12.555 76.8420714,11.8575 78.393264,11.8575 C82.6036439,11.8575 86.0014943,15.345 86.0014943,19.84 C86.0014943,19.84 86.0014943,30.69 86.0014943,30.69 Z" id="Path" fill-rule="nonzero"></path>
                        <path d="M104.763538,22.3975 L104.763538,21.1575 C104.763538,16.0425 101.144089,11.625 96.5643773,11.625 C91.9846658,11.625 88.3652164,15.7325 88.3652164,21.1575 C88.3652164,26.5825 91.9846658,30.69 96.5643773,30.69 C99.2974309,30.69 102.030485,29.0625 103.507811,26.5825 L100.774757,24.955 C99.8883614,26.5825 98.3371688,27.5125 96.5643773,27.5125 C94.1267889,27.5125 91.9846658,25.265 91.3937353,22.3975 C91.3937353,22.3975 104.763538,22.3975 104.763538,22.3975 Z M96.6382436,14.725 C99.0758319,14.725 100.848623,16.6625 101.51342,19.22 L91.4676016,19.22 C92.3539974,16.6625 94.2006552,14.725 96.6382436,14.725 L96.6382436,14.725 Z" id="Shape" fill-rule="nonzero"></path>
                        <polygon id="Path" fill-rule="nonzero" points="123.008518 11.8575 119.093603 11.8575 113.627496 18.6 108.161389 11.8575 104.172608 11.8575 111.485373 21.08 103.877142 30.69 107.865923 30.69 113.627496 23.3275 119.389068 30.69 123.303983 30.69 115.400287 21.08"></polygon>
                        <path d="M133.940732,11.8575 L127.883694,11.8575 L127.883694,6.1225 L124.855176,8.06 L124.855176,11.8575 L124.855176,15.035 L124.855176,23.9475 C124.855176,27.745 127.883694,30.9225 131.503144,30.9225 L133.940732,30.9225 L133.940732,27.745 L132.094074,27.745 C129.656486,27.745 127.809828,25.8075 127.809828,23.25 L127.809828,15.035 L133.866866,15.035 L133.866866,11.8575 L133.940732,11.8575 L133.940732,11.8575 Z" id="Path" fill-rule="nonzero"></path>
                        <path d="M40.7953101,10.3075 L40.7953101,30.69 L44.1192942,30.69 L44.1192942,14.725 L50.176332,14.725 L50.176332,11.5475 L44.1192942,11.5475 L44.1192942,10.9275 C44.1192942,8.37 45.9659521,6.4325 48.4035404,6.4325 L55.7163055,6.4325 L55.7163055,3.255 L47.4432783,3.255 C43.5283637,3.255 40.7953101,6.51 40.7953101,10.3075" id="Path" fill-rule="nonzero"></path>
                        <path d="M32.4052902,3.1 L19.3576642,8.68 L19.3576642,31 C20.9056876,30.6983784 22.3799957,30.3967568 23.9280191,30.0951351 L23.9280191,11.47 L34.2481752,7.09648649 L32.4052902,3.1 Z" id="Path" fill-rule="nonzero"></path>
                        <path d="M1.54802342,3.1 L0,7.17189189 L10.3201561,11.5454054 L10.3201561,30.0951351 C11.8681795,30.6983784 13.3424875,31 14.8905109,31 L14.8905109,8.68 L1.54802342,3.1 Z" id="Path" fill-rule="nonzero"></path>
                        <path d="M19.3576642,3.1 C19.3576642,1.51219512 18.195478,0 16.379562,0 C14.5636461,0 13.4014599,1.2097561 13.4014599,3.1 C13.4014599,4.68780488 14.5636461,6.2 16.379562,6.2 C18.195478,6.2 19.3576642,4.61219512 19.3576642,3.1" id="Path" fill-rule="nonzero"></path>
                    </g>
                </g>
            </g>
        </g>
    </g>
</svg>