<svg xmlns="http://www.w3.org/2000/svg" viewBox="0 0 134 31"><g fill="#1A2238" fill-rule="nonzero"><path d="M52.318 11.857V30.69h3.029V9.997zM61.995 5.813L58.966 7.75v15.887c0 3.798 3.029 6.976 6.648 6.976h2.438v-3.178h-1.847c-2.437 0-4.284-1.938-4.284-4.495v-8.215h6.057v-3.178h-6.057l.074-5.735zM86.001 30.69h-3.028V19.22c-.295-2.557-2.142-4.495-4.58-4.495-2.437 0-4.58 2.248-4.58 4.805v10.85h-3.028V11.857h3.029v1.628c1.181-.93 3.028-1.627 4.58-1.627 4.21 0 7.607 3.487 7.607 7.982v10.85zM104.764 22.398v-1.24c0-5.116-3.62-9.533-8.2-9.533-4.58 0-8.199 4.107-8.199 9.532s3.62 9.533 8.2 9.533c2.732 0 5.465-1.628 6.943-4.108l-2.733-1.627c-.887 1.628-2.438 2.558-4.21 2.558-2.438 0-4.58-2.248-5.171-5.116h13.37zm-8.126-7.673c2.438 0 4.21 1.938 4.875 4.495H91.468c.886-2.557 2.733-4.495 5.17-4.495z"/><path d="M123.009 11.857h-3.915l-5.467 6.743-5.466-6.743h-3.988l7.312 9.223-7.608 9.61h3.989l5.761-7.363 5.762 7.363h3.915l-7.904-9.61zM133.94 11.857h-6.056V6.123l-3.029 1.937v15.888c0 3.797 3.029 6.974 6.648 6.974h2.438v-3.177h-1.847c-2.438 0-4.284-1.938-4.284-4.495v-8.215h6.057v-3.178h.074zM40.795 10.307V30.69h3.324V14.725h6.057v-3.178H44.12v-.62c0-2.557 1.847-4.494 4.285-4.494h7.312V3.255h-8.273c-3.915 0-6.648 3.255-6.648 7.052M32.405 3.1L19.358 8.68V31c1.548-.302 3.022-.603 4.57-.905V11.47l10.32-4.374L32.405 3.1zM1.548 3.1L0 7.172l10.32 4.373v18.55c1.548.603 3.022.905 4.57.905V8.68L1.549 3.1zM19.358 3.1c0-1.588-1.163-3.1-2.978-3.1C14.564 0 13.4 1.21 13.4 3.1c0 1.588 1.163 3.1 2.979 3.1 1.815 0 2.978-1.588 2.978-3.1"/></g></svg>