<?xml version="1.0" encoding="UTF-8"?>
<svg width="349px" height="323px" viewBox="0 0 349 323" version="1.1" xmlns="http://www.w3.org/2000/svg" xmlns:xlink="http://www.w3.org/1999/xlink">
    <!-- Generator: Sketch 54.1 (76490) - https://sketchapp.com -->
    <title>Group 11</title>
    <desc>Created with Sketch.</desc>
    <defs>
        <linearGradient x1="50%" y1="0%" x2="50%" y2="100%" id="linearGradient-1">
            <stop stop-color="#007EB0" offset="0%"></stop>
            <stop stop-color="#A8EE9F" offset="100%"></stop>
        </linearGradient>
    </defs>
    <g id="WebDesign" stroke="none" stroke-width="1" fill="none" fill-rule="evenodd" stroke-linecap="square">
        <g id="1a5-Home" transform="translate(-307.000000, -164.000000)" stroke="url(#linearGradient-1)" stroke-width="3">
            <g id="Cover" transform="translate(175.000000, 48.000000)">
                <g id="illu">
                    <g id="Circle">
                        <g id="Circle-1" transform="translate(132.000000, 103.000000)">
                            <g id="Group-11">
                                <path d="M1,158.5 L347,158.5 M1,174.5 L347,174.5 M1,190.5 L347,190.5 M1,206.5 L347,206.5 M1,222.5 L347,222.5 M1,238.5 L347,238.5 M1,254.5 L347,254.5 M1,270.5 L347,270.5 M1,286.5 L347,286.5 M1,302.5 L347,302.5 M1,318.5 L347,318.5 M1,334.5 L347,334.5 M1,350.5 L347,350.5 M1,-1.5 L347,-1.5 M1,14.5 L347,14.5 M1,30.5 L347,30.5 M1,46.5 L347,46.5 M1,62.5 L347,62.5 M1,78.5 L347,78.5 M1,94.5 L347,94.5 M1,110.5 L347,110.5 M1,126.5 L347,126.5 M1,142.5 L347,142.5" id="Line-4-Copy-23"></path>
                            </g>
                        </g>
                    </g>
                </g>
            </g>
        </g>
    </g>
</svg>