<svg xmlns="http://www.w3.org/2000/svg" viewBox="0 0 73 73"><g fill="none" fill-rule="evenodd"><path fill="#007EB0" d="M32.736 2.742a5.216 5.216 0 018.128 0l4.838 6.02a5.213 5.213 0 004.628 1.92l7.68-.836a5.216 5.216 0 015.76 5.76l-.836 7.68a5.213 5.213 0 001.92 4.628l6.02 4.838a5.216 5.216 0 010 8.128l-6.039 4.816a5.222 5.222 0 00-1.92 4.63l.835 7.68a5.213 5.213 0 01-5.76 5.76l-7.68-.835a5.21 5.21 0 00-4.627 1.92l-4.819 5.997a5.213 5.213 0 01-8.128 0l-4.835-6.016a5.22 5.22 0 00-4.63-1.92l-7.68.835a5.21 5.21 0 01-5.76-5.76l.835-7.68a5.22 5.22 0 00-1.92-4.63L2.73 40.842a5.213 5.213 0 010-8.128l6.016-4.839a5.21 5.21 0 001.92-4.627l-.836-7.68a5.213 5.213 0 015.76-5.76l7.68.835a5.222 5.222 0 004.63-1.92l4.836-5.98z"/><path stroke="#FFF" stroke-linecap="round" stroke-linejoin="round" stroke-width="4.8" d="M48.8 29.597L36.06 46.582h0a2.4 2.4 0 01-3.615.256L24.8 39.197"/></g></svg>