<svg xmlns="http://www.w3.org/2000/svg" viewBox="0 0 39 39"><g fill="none" fill-rule="evenodd" stroke-linecap="round" stroke-linejoin="round" stroke-width="2"><path stroke="#007EB0" d="M1.4 37.4l10.448-8.358h0a4.8 4.8 0 013.52-1.023l7.914.879h0c.6.067 1.21.02 1.793-.14l12.32-3.36M1.4 27.8l10.86-6.517h0a4.8 4.8 0 012.47-.683h8.43c.685 0 1.363-.147 1.987-.43L37.4 14.6"/><path stroke="#1A2238" d="M1.4 18.2l12.88-6.438h0a4.8 4.8 0 013.189-.392l6.731 1.497h0a4.8 4.8 0 004.229-1.097l8.96-7.97v33.6H1.4v-36"/></g></svg>