<svg xmlns="http://www.w3.org/2000/svg" viewBox="0 0 40 32"><g fill="none" fill-rule="evenodd" stroke-width="2"><path stroke="#1A2238" stroke-linejoin="round" d="M15.4 9h23.4v3.6l-12.6 4.2"/><path stroke="#1A2238" d="M4.673 18.527a1.8 1.8 0 11-2.546 2.546 1.8 1.8 0 012.546-2.546M22.6 19.6a6.8 6.8 0 11-6.8-6.8"/><path stroke="#1A2238" d="M16 9C10.035 9 5.2 13.836 5.2 19.8c0 5.965 4.835 10.8 10.8 10.8 5.965 0 10.8-4.835 10.8-10.8 0-2.22-.67-4.283-1.818-5.999"/><path stroke="#F57C4E" d="M17.2 6V0M11.2 6.6L8.8 3M23.2 6.6L25.6 3"/></g></svg>