<svg xmlns="http://www.w3.org/2000/svg" viewBox="0 0 36 36"><g fill="none" fill-rule="evenodd" stroke-linecap="round" stroke-linejoin="round" stroke-width="2"><path stroke="#1A2238" d="M20.77 2.23a4.2 4.2 0 11-5.94 5.94 4.2 4.2 0 015.94-5.94M32.2 13H3.4h0a2.4 2.4 0 000 4.8h12v4.8H13h0a7.208 7.208 0 00-7.2 7.2v2.4h0a2.4 2.4 0 004.8 0v-2.4h0a2.4 2.4 0 012.4-2.4s0 0 0 0h3.317l1.61 3.22h0a7.166 7.166 0 006.433 3.98h3.04a2.4 2.4 0 000-4.8h-3.04 0a2.386 2.386 0 01-2.146-1.326l-2.014-4.04V17.8h12a2.4 2.4 0 000-4.8h0zM15.4 22.6h4.8"/><path stroke="#F57C4E" d="M15.4 22.6H13a7.208 7.208 0 00-7.2 7.2v2.4a2.4 2.4 0 004.8 0v-2.4a2.4 2.4 0 012.4-2.4h3.317l1.61 3.22a7.166 7.166 0 006.433 3.98h3.04a2.4 2.4 0 000-4.8h-3.04a2.386 2.386 0 01-2.146-1.326l-2.014-4.04V22.6h-4.8z"/></g></svg>