<svg xmlns="http://www.w3.org/2000/svg" viewBox="0 0 36 39"><g fill="none" fill-rule="evenodd" stroke-linecap="round" stroke-linejoin="round" stroke-width="2"><path stroke="#1A2238" d="M5.8 37.4A2.4 2.4 0 013.4 35V3.8a2.4 2.4 0 012.4-2.4h26.4a2.4 2.4 0 012.4 2.4V35a2.4 2.4 0 01-2.4 2.4H5.8zM1 8.6h4.8M1 15.8h4.8M1 23h4.8M1 30.2h4.8"/><path stroke="#3DB5A9" d="M17.946 11.03c1.405 1.64 1.405 4.3 0 5.94-1.406 1.64-3.686 1.64-5.092 0-1.405-1.64-1.405-4.3 0-5.94 1.406-1.64 3.686-1.64 5.092 0M15.4 18.2v9.6M25 18.2v9.6M22.6 9.8v6h0a2.4 2.4 0 002.4 2.4h0a2.4 2.4 0 002.4-2.4v-6"/></g></svg>